<?xml version="1.0" standalone="no"?>
<!DOCTYPE svg PUBLIC "-//W3C//DTD SVG 20010904//EN"
 "http://www.w3.org/TR/2001/REC-SVG-20010904/DTD/svg10.dtd">
<svg version="1.0" xmlns="http://www.w3.org/2000/svg"
 width="283.000000pt" height="67.000000pt" viewBox="0 0 283.000000 67.000000"
 preserveAspectRatio="xMidYMid meet">

<g transform="translate(0.000000,67.000000) scale(0.100000,-0.100000)"
fill="#000000" stroke="none">
<path d="M1823 653 c-37 -5 -43 -18 -12 -28 11 -4 24 -18 30 -32 5 -13 9 -139
9 -279 0 -242 -1 -255 -20 -271 -31 -27 -24 -33 40 -33 64 0 71 6 40 33 -19
16 -20 29 -20 317 0 333 7 302 -67 293z"/>
<path d="M2703 653 c-32 -4 -47 -23 -19 -23 35 0 46 -29 46 -126 0 -91 -1 -94
-19 -84 -33 17 -85 12 -110 -12 -42 -39 -66 -106 -66 -188 0 -166 85 -261 166
-184 28 27 29 27 29 6 0 -19 5 -22 45 -22 49 0 56 8 25 28 -19 12 -20 23 -20
312 l0 300 -22 -2 c-13 0 -38 -3 -55 -5z m-7 -251 c27 -18 34 -56 34 -184 0
-121 -2 -136 -20 -156 -27 -29 -55 -28 -85 2 -34 34 -48 98 -41 189 5 77 15
106 44 140 16 18 49 22 68 9z"/>
<path d="M32 613 c-25 -28 -28 -43 -8 -43 7 0 30 -11 50 -25 39 -26 49 -18 16
15 -11 11 -20 31 -20 44 0 35 -12 38 -38 9z"/>
<path d="M2050 621 c-15 -28 -12 -61 5 -67 18 -7 20 -54 2 -54 -7 0 -22 -7
-33 -15 -19 -15 -19 -16 1 -13 18 3 20 -3 20 -57 0 -56 -2 -60 -22 -59 -17 0
-20 -2 -12 -12 6 -7 8 -26 4 -43 -4 -17 -2 -32 5 -36 6 -4 8 -20 5 -39 -5 -23
-2 -36 9 -45 11 -10 16 -31 16 -72 0 -54 -2 -60 -24 -69 -13 -5 -27 -13 -30
-19 -4 -6 12 -2 36 9 35 16 45 17 58 6 8 -7 22 -17 30 -21 12 -7 11 -4 -2 11
-21 24 -21 140 0 153 10 6 11 19 7 45 -5 26 -4 36 5 36 9 0 11 11 7 34 -4 24
-1 39 9 47 9 7 13 29 12 63 l-2 51 -3 -47 c-6 -76 -53 -94 -53 -20 0 61 10 84
32 79 19 -5 19 -5 2 14 -9 10 -23 19 -31 19 -18 0 -16 33 4 68 17 29 17 31 -1
51 -24 26 -42 27 -56 2z"/>
<path d="M577 614 c-4 -4 -7 -18 -7 -32 0 -13 -10 -32 -22 -42 -13 -10 -20
-21 -16 -25 4 -4 19 2 34 14 15 11 33 21 40 21 8 0 14 7 14 15 0 8 -4 15 -8
15 -5 0 -13 9 -18 21 -5 11 -13 17 -17 13z"/>
<path d="M269 600 c-88 -16 -173 -97 -199 -190 -39 -139 23 -306 134 -360 53
-25 146 -29 198 -7 55 23 113 82 139 140 32 73 32 191 0 264 -48 110 -162 174
-272 153z m168 -72 c64 -42 88 -102 88 -219 0 -89 -2 -99 -30 -144 -40 -64
-97 -95 -177 -95 -71 0 -112 16 -155 60 -81 83 -86 278 -9 364 49 55 80 67
167 64 62 -2 83 -8 116 -30z"/>
<path d="M258 475 c-76 -40 -70 -45 53 -45 l112 0 -19 21 c-18 20 -73 50 -91
49 -4 -1 -29 -12 -55 -25z"/>
<path d="M308 413 c18 -2 45 -2 60 0 15 2 0 4 -33 4 -33 0 -45 -2 -27 -4z"/>
<path d="M255 390 c-22 -4 -62 -11 -90 -15 -45 -8 -47 -9 -20 -14 25 -5 31
-12 39 -51 l10 -45 5 35 c5 26 14 38 35 49 27 13 30 12 47 -10 38 -50 15 -94
-45 -87 -29 3 -33 1 -24 -10 58 -69 190 -48 224 35 17 39 11 101 -9 108 -29 8
-136 12 -172 5z m159 -52 c33 -47 14 -88 -40 -88 -69 0 -52 103 18 109 4 1 14
-9 22 -21z m-80 -97 c9 -15 -23 -36 -36 -23 -5 5 -7 15 -4 21 9 13 33 14 40 2z"/>
<path d="M469 367 c5 -5 19 -7 32 -5 20 3 19 5 -9 9 -20 3 -29 2 -23 -4z"/>
<path d="M265 180 c-3 -5 -1 -10 4 -10 6 0 11 5 11 10 0 6 -2 10 -4 10 -3 0
-8 -4 -11 -10z"/>
<path d="M305 170 c3 -5 8 -10 11 -10 2 0 4 5 4 10 0 6 -5 10 -11 10 -5 0 -7
-4 -4 -10z"/>
<path d="M280 135 c7 -8 25 -15 40 -15 15 0 33 7 40 15 11 13 5 15 -40 15 -45
0 -51 -2 -40 -15z"/>
<path d="M1530 595 c0 -3 9 -14 20 -25 19 -19 20 -33 20 -256 0 -235 -5 -274
-35 -274 -8 0 -15 -7 -15 -16 0 -14 12 -16 90 -12 77 4 93 7 115 28 70 66 56
239 -23 275 -27 12 -28 21 -2 35 64 34 68 220 5 244 -20 7 -175 8 -175 1z
m164 -37 c21 -30 21 -139 1 -178 -13 -25 -22 -30 -50 -30 l-35 0 0 115 0 115
34 0 c25 0 39 -7 50 -22z m16 -290 c51 -84 2 -247 -67 -221 -30 11 -33 23 -33
141 l0 112 40 0 c35 0 43 -5 60 -32z"/>
<path d="M1993 410 c0 -25 2 -35 4 -22 2 12 2 32 0 45 -2 12 -4 2 -4 -23z"/>
<path d="M693 423 c-28 -5 -28 -8 -3 -33 18 -18 20 -33 20 -169 0 -157 -3
-181 -26 -181 -8 0 -14 -4 -14 -10 0 -5 25 -10 55 -10 53 0 73 14 39 27 -13 5
-15 29 -14 162 1 86 1 171 1 189 -1 33 -5 35 -58 25z"/>
<path d="M788 413 c-8 -10 -19 -25 -23 -33 -6 -12 -5 -13 6 -2 7 6 25 12 39
12 41 0 50 -33 50 -185 0 -141 -4 -165 -26 -165 -8 0 -14 -4 -14 -10 0 -5 25
-10 55 -10 52 0 72 11 41 23 -11 4 -15 41 -17 169 -3 136 -7 169 -22 191 -21
32 -66 37 -89 10z"/>
<path d="M2223 423 c-28 -5 -28 -8 -3 -33 18 -18 20 -33 20 -169 0 -157 -3
-181 -26 -181 -8 0 -14 -4 -14 -10 0 -5 25 -10 55 -10 53 0 73 14 39 27 -13 5
-15 29 -14 162 1 86 1 171 1 189 -1 33 -5 35 -58 25z"/>
<path d="M2318 413 c-8 -10 -19 -25 -23 -33 -6 -12 -5 -13 6 -2 7 6 25 12 39
12 41 0 50 -33 50 -185 0 -141 -4 -165 -26 -165 -8 0 -14 -4 -14 -10 0 -5 25
-10 55 -10 52 0 72 11 41 23 -11 4 -15 41 -17 169 -3 136 -7 169 -22 191 -21
32 -66 37 -89 10z"/>
<path d="M1055 394 c-36 -39 -50 -90 -50 -184 1 -107 27 -173 77 -194 34 -15
53 -12 82 13 21 19 50 71 42 78 -2 3 -12 -9 -20 -26 -18 -34 -59 -50 -85 -34
-27 17 -49 66 -56 126 l-7 57 86 0 c79 0 86 2 86 20 0 42 -23 120 -41 145 -28
35 -81 35 -114 -1z m93 -21 c6 -16 14 -47 17 -70 l7 -43 -67 0 -67 0 7 43 c12
67 31 97 64 97 22 0 31 -6 39 -27z"/>
<path d="M62 94 c-18 -12 -38 -24 -44 -26 -8 -3 -5 -13 8 -31 22 -31 40 -29
36 3 -1 13 7 34 20 47 29 31 20 35 -20 7z"/>
<path d="M520 109 c0 -6 9 -22 20 -36 11 -14 20 -32 20 -39 0 -8 9 -14 20 -14
11 0 20 4 20 9 0 5 9 11 21 14 30 8 18 31 -18 35 -17 2 -39 12 -49 23 -19 21
-34 25 -34 8z"/>
</g>
</svg>
