<?xml version="1.0" standalone="no"?>
<!DOCTYPE svg PUBLIC "-//W3C//DTD SVG 20010904//EN"
 "http://www.w3.org/TR/2001/REC-SVG-20010904/DTD/svg10.dtd">
<svg version="1.0" xmlns="http://www.w3.org/2000/svg"
 width="4000.000000pt" height="4000.000000pt" viewBox="0 0 4000.000000 4000.000000"
 preserveAspectRatio="xMidYMid meet">

<g transform="translate(0.000000,4000.000000) scale(0.100000,-0.100000)"
fill="#000000" stroke="none">
<path d="M4365 39994 c-16 -2 -77 -9 -135 -15 -339 -35 -731 -186 -1030 -394
-583 -406 -949 -1003 -1022 -1662 -11 -102 -14 -114 -32 -117 -12 -2 -76 -11
-144 -20 -459 -61 -897 -278 -1251 -621 -415 -401 -657 -870 -732 -1415 -19
-138 -17 -459 5 -595 56 -360 201 -699 411 -966 80 -102 253 -272 353 -348
277 -210 588 -339 957 -397 149 -23 448 -23 605 0 426 65 838 243 1143 497 32
27 62 49 65 49 4 0 1317 -1311 2919 -2912 l2912 -2913 -76 -125 c-216 -356
-521 -946 -697 -1344 -164 -374 -323 -785 -436 -1131 -23 -71 -46 -134 -50
-138 -4 -5 -92 -22 -196 -38 -291 -46 -789 -134 -1109 -195 -2446 -468 -4098
-1053 -4792 -1696 -245 -228 -367 -425 -428 -691 -36 -163 -5 -360 89 -553
123 -251 333 -468 666 -689 918 -608 2720 -1154 5216 -1580 31 -5 32 -7 39
-73 3 -37 17 -150 31 -252 312 -2354 1300 -4601 2821 -6414 l151 -181 -3526
-3527 c-1940 -1941 -3530 -3528 -3534 -3528 -3 0 -33 22 -65 49 -305 254 -717
432 -1143 497 -157 23 -456 23 -605 0 -369 -58 -680 -187 -957 -397 -100 -76
-273 -246 -353 -348 -210 -267 -355 -606 -411 -966 -22 -136 -24 -457 -5 -595
51 -374 190 -731 404 -1035 388 -553 966 -919 1579 -1001 68 -9 132 -18 144
-20 18 -3 21 -15 32 -117 115 -1045 989 -1922 2052 -2058 163 -22 468 -16 617
10 238 42 400 94 603 196 575 287 963 821 1076 1480 25 147 30 456 9 610 -41
314 -135 594 -285 858 -62 111 -159 253 -221 327 -22 26 -39 50 -39 56 0 5
1626 1635 3614 3623 l3614 3614 162 -103 c187 -117 413 -252 612 -364 l138
-77 -16 -37 c-9 -20 -45 -113 -81 -207 -244 -635 -392 -1301 -444 -2005 -16
-209 -15 -737 0 -940 85 -1109 409 -2135 966 -3060 654 -1086 1580 -1944 2690
-2495 1325 -657 2809 -834 4230 -503 1650 383 3086 1408 4012 2864 596 936
949 2007 1045 3169 16 197 16 797 0 1000 -44 555 -148 1086 -311 1595 -53 167
-153 440 -194 532 -29 65 -35 57 78 118 143 76 376 211 559 323 l179 109 3573
-3573 c1966 -1966 3574 -3577 3574 -3581 0 -3 -22 -33 -49 -65 -254 -305 -432
-717 -497 -1143 -23 -157 -23 -456 0 -605 58 -369 187 -680 397 -957 76 -100
246 -273 348 -353 267 -210 606 -355 966 -411 136 -22 457 -24 595 -5 374 51
731 190 1035 404 553 388 919 966 1001 1579 9 68 18 132 20 144 3 18 15 21
117 32 1045 115 1922 989 2058 2052 22 163 16 468 -10 617 -42 238 -94 400
-196 603 -287 575 -821 963 -1480 1076 -147 25 -456 30 -610 9 -314 -41 -594
-135 -858 -285 -111 -62 -253 -159 -327 -221 -26 -22 -50 -39 -56 -39 -5 0
-1575 1566 -3489 3480 -3261 3261 -3478 3480 -3463 3497 1065 1223 1817 2474
2365 3938 88 236 255 736 248 743 -3 3 -1 10 4 16 5 6 27 74 49 151 183 631
329 1345 402 1965 12 102 23 194 26 206 3 18 26 24 241 63 1943 349 3460 782
4393 1252 802 404 1199 834 1227 1329 6 111 -3 165 -49 310 -70 220 -247 449
-508 659 -818 658 -2669 1254 -5310 1710 -190 33 -382 65 -426 72 l-82 12 -42
136 c-65 210 -218 634 -315 871 -241 597 -537 1195 -860 1738 l-108 184 2844
2844 c1564 1564 2848 2844 2853 2844 5 0 30 -17 56 -39 74 -62 216 -159 327
-221 264 -150 544 -244 858 -285 154 -21 463 -16 610 9 659 113 1193 501 1480
1076 102 203 154 365 196 603 26 149 32 454 10 617 -46 361 -189 733 -396
1030 -406 583 -1003 949 -1662 1022 -102 11 -114 14 -117 32 -2 12 -11 76 -20
144 -61 459 -278 897 -621 1251 -401 415 -870 657 -1415 732 -138 19 -459 17
-595 -5 -360 -56 -699 -201 -966 -411 -102 -80 -272 -253 -348 -353 -210 -277
-339 -588 -397 -957 -23 -149 -23 -448 0 -605 65 -426 243 -838 497 -1143 27
-32 49 -62 49 -65 0 -4 -1230 -1237 -2733 -2740 l-2732 -2732 -110 98 c-272
242 -706 581 -1055 824 -1724 1201 -3790 1965 -5940 2197 -488 53 -745 65
-1335 66 -520 0 -671 -6 -1075 -41 -2698 -233 -5259 -1343 -7289 -3157 l-133
-120 -2799 2799 c-1539 1539 -2799 2803 -2799 2808 0 5 17 30 39 56 113 134
247 355 329 542 92 210 148 413 177 648 21 160 16 458 -9 605 -113 659 -501
1193 -1076 1480 -288 144 -559 211 -887 219 -92 3 -181 3 -198 0z m390 -499
c304 -51 550 -161 767 -342 377 -313 581 -815 539 -1326 -20 -242 -75 -443
-182 -662 -96 -199 -197 -339 -389 -541 -77 -80 -99 -110 -110 -147 -24 -89 2
-191 64 -245 17 -15 1321 -1316 2898 -2892 l2867 -2864 -107 -111 c-482 -497
-899 -999 -1289 -1554 -68 -97 -128 -176 -133 -176 -6 0 -1347 1337 -2982
2971 -2861 2860 -2975 2972 -3027 2989 -60 20 -121 16 -179 -12 -20 -10 -89
-67 -152 -128 -178 -171 -309 -264 -504 -359 -255 -125 -515 -186 -788 -186
-420 0 -800 148 -1086 424 -134 129 -217 240 -296 396 -119 233 -165 413 -173
677 -6 191 5 308 43 468 164 696 753 1278 1432 1414 112 23 291 41 407 41 121
1 200 44 247 135 18 34 22 68 29 235 9 220 31 353 85 519 85 259 222 484 423
694 309 321 686 522 1095 582 128 18 390 18 501 0z m30932 5 c482 -64 930
-322 1245 -716 263 -330 397 -719 398 -1159 1 -121 44 -200 135 -247 34 -18
68 -22 235 -29 295 -12 499 -59 725 -168 449 -215 823 -631 984 -1094 117
-335 134 -690 50 -1012 -213 -811 -1003 -1279 -1862 -1104 -215 44 -463 148
-652 275 -116 78 -182 132 -321 264 -80 77 -110 99 -147 110 -89 24 -191 -2
-245 -64 -15 -17 -1321 -1326 -2903 -2909 l-2875 -2878 -104 148 c-351 501
-762 996 -1224 1476 -111 115 -201 213 -201 218 0 5 1272 1281 2826 2836 2720
2721 2827 2830 2844 2882 20 60 16 121 -12 179 -10 20 -67 89 -128 152 -171
178 -264 309 -359 504 -125 255 -186 515 -186 788 0 420 148 800 424 1086 129
134 240 217 396 296 171 87 348 143 535 169 64 9 347 6 422 -3z m-15002 -5861
c454 -23 910 -71 1330 -140 2355 -388 4428 -1360 6150 -2885 238 -210 709
-680 926 -924 713 -801 1274 -1631 1763 -2609 155 -308 353 -748 342 -758 -2
-3 -26 7 -53 20 -83 43 -321 142 -468 195 -1605 585 -4614 1000 -8205 1132
-829 30 -1142 35 -2345 35 -1202 0 -1515 -5 -2340 -35 -3988 -146 -7228 -639
-8654 -1316 -74 -35 -135 -63 -136 -62 -7 8 174 402 309 673 497 1000 1069
1843 1830 2695 179 201 727 746 926 922 461 408 874 726 1365 1053 2158 1435
4687 2134 7260 2004z m445 -7989 c5247 -64 9889 -506 13110 -1250 2010 -464
3324 -1042 3593 -1579 39 -78 42 -90 42 -165 0 -71 -4 -89 -32 -147 -43 -86
-114 -179 -199 -258 -590 -552 -2082 -1084 -4266 -1520 -315 -63 -731 -140
-735 -137 -2 2 2 157 9 345 16 471 -1 999 -48 1516 -8 94 -19 179 -24 190 -5
11 -20 46 -34 77 -182 423 -941 766 -2366 1068 -1648 349 -4098 604 -6880 715
-1142 45 -1822 58 -3150 59 -1313 0 -1877 -9 -2990 -49 -4540 -165 -8025 -692
-9111 -1377 -223 -141 -351 -278 -417 -445 -26 -66 -33 -105 -46 -255 -46
-504 -61 -1008 -46 -1491 7 -203 9 -371 6 -375 -13 -13 -937 164 -1476 283
-1320 292 -2317 610 -3013 963 -316 159 -530 303 -687 461 -150 151 -219 288
-207 410 23 220 327 510 797 760 2610 1388 10129 2299 18170 2201z m950 -1605
c4965 -126 8888 -676 9875 -1383 114 -82 132 -112 145 -242 60 -610 65 -1432
14 -2060 -69 -849 -218 -1653 -456 -2460 -674 -2289 -1989 -4300 -3808 -5825
-1237 -1037 -2679 -1822 -4215 -2294 -895 -275 -1727 -430 -2706 -507 -455
-35 -1300 -30 -1797 12 -2556 212 -4972 1218 -6887 2868 -315 272 -715 658
-999 966 -1810 1961 -2932 4494 -3160 7140 -35 395 -41 556 -41 1040 1 482 8
665 41 1045 18 207 21 215 119 293 505 404 2118 789 4400 1051 1878 216 3826
328 6510 375 422 8 2437 -5 2965 -19z m-10525 -11949 c322 -298 685 -601 1038
-865 97 -72 177 -135 177 -139 0 -4 -1660 -1667 -3689 -3696 -3041 -3041
-3690 -3695 -3700 -3726 -6 -20 -11 -54 -11 -75 0 -78 20 -115 120 -220 132
-138 186 -204 264 -320 285 -425 382 -958 259 -1424 -183 -690 -776 -1142
-1498 -1141 -160 0 -306 17 -434 50 -544 139 -1019 529 -1262 1035 -109 226
-156 430 -168 725 -7 167 -11 201 -29 235 -47 91 -126 134 -247 135 -116 0
-295 18 -407 41 -616 124 -1167 619 -1384 1244 -71 202 -99 398 -91 638 8 264
54 444 173 677 79 156 162 267 296 396 480 462 1222 556 1874 238 195 -95 326
-188 504 -359 63 -61 133 -119 155 -130 56 -28 146 -27 205 2 33 17 985 963
3659 3637 l3615 3615 210 -212 c116 -117 283 -279 371 -361z m21154 -3120
c2954 -2955 3590 -3585 3621 -3595 20 -6 54 -11 75 -11 78 0 115 20 220 120
138 132 204 186 320 264 425 286 958 382 1424 259 690 -183 1142 -776 1141
-1498 0 -160 -17 -306 -50 -434 -139 -544 -529 -1019 -1035 -1262 -226 -109
-430 -156 -725 -168 -167 -7 -201 -11 -235 -29 -91 -47 -134 -126 -135 -247 0
-116 -18 -295 -41 -407 -124 -616 -619 -1167 -1244 -1384 -202 -71 -398 -99
-638 -91 -264 8 -444 54 -677 173 -156 79 -267 162 -396 296 -462 480 -556
1222 -238 1874 95 195 188 326 359 504 61 63 119 133 130 155 28 56 27 146 -2
205 -17 33 -968 990 -3657 3679 l-3634 3634 161 116 c318 228 669 509 985 789
147 130 557 517 641 606 19 20 37 36 41 36 3 0 1618 -1613 3589 -3584z
m-17864 919 c232 -108 575 -250 860 -357 331 -124 990 -332 1198 -378 31 -7
57 -18 57 -25 0 -13 -466 -1455 -473 -1461 -2 -2 -118 53 -258 124 -457 230
-757 434 -1038 707 -385 375 -586 745 -632 1165 l-9 85 46 117 45 117 62 -28
c34 -16 98 -45 142 -66z m10685 -36 c37 -92 37 -96 29 -179 -38 -403 -237
-781 -598 -1140 -288 -286 -658 -541 -1097 -754 -160 -78 -356 -166 -371 -166
-5 0 -86 242 -181 538 -95 295 -201 625 -236 733 l-63 197 166 42 c725 185
1501 459 2156 764 77 35 144 64 149 62 5 -1 26 -45 46 -97z m-11056 -1075
c188 -314 536 -668 926 -942 230 -161 653 -397 909 -505 38 -17 61 -32 58 -40
-2 -6 -109 -336 -237 -732 -128 -396 -236 -724 -240 -728 -16 -18 -381 302
-554 487 -621 663 -960 1366 -1042 2156 -24 235 -15 391 33 554 3 13 18 -9 52
-75 25 -52 68 -131 95 -175z m11350 126 c31 -145 33 -234 11 -443 -97 -923
-575 -1773 -1393 -2478 -124 -107 -340 -274 -346 -268 -6 8 -486 1509 -486
1521 0 7 57 37 128 67 155 66 481 227 617 306 650 376 1117 825 1370 1317 33
64 63 114 66 110 3 -4 18 -63 33 -132z m-8149 71 c583 -116 1188 -191 1808
-222 l247 -13 0 -874 0 -874 -122 7 c-718 36 -1311 118 -1893 261 -356 87
-775 216 -775 238 0 13 87 284 386 1204 100 305 107 323 127 318 12 -3 112
-23 222 -45z m5085 -663 c117 -365 228 -709 246 -766 l33 -103 -27 -10 c-61
-23 -376 -113 -555 -159 -317 -80 -736 -158 -1097 -204 -288 -37 -811 -76
-1022 -76 l-98 0 0 869 0 869 63 6 c34 3 157 8 272 11 522 14 1216 89 1745
189 96 18 187 34 201 35 25 1 28 -7 239 -661z m-8412 -1482 c419 -710 1045
-1318 1857 -1804 1716 -1025 4039 -1293 6085 -702 1647 477 2952 1455 3605
2705 l68 130 -7 -110 c-34 -542 -186 -1222 -397 -1773 -428 -1117 -1152 -2065
-2107 -2761 -775 -564 -1708 -936 -2657 -1060 -263 -35 -423 -44 -730 -44
-571 -1 -1056 67 -1595 223 -2097 606 -3697 2351 -4179 4560 -59 268 -112 638
-127 875 l-6 110 62 -120 c35 -66 92 -169 128 -229z m2553 269 c136 -47 462
-142 644 -188 645 -163 1279 -253 2058 -293 l127 -6 0 -1054 0 -1054 -37 0
c-59 0 -304 19 -463 36 -1007 106 -1975 419 -2775 896 -82 50 -152 91 -153 93
-6 5 511 1595 518 1595 4 0 40 -11 81 -25z m6282 -102 c13 -43 131 -410 262
-816 130 -406 235 -740 232 -743 -17 -17 -262 -150 -422 -229 -685 -337 -1399
-547 -2225 -654 -152 -20 -438 -44 -672 -56 l-118 -6 0 1059 0 1059 205 6
c870 28 1771 172 2505 400 96 30 183 55 192 56 13 1 23 -18 41 -76z"/>
<path d="M14320 22429 c-456 -39 -837 -127 -1258 -291 -154 -61 -496 -233
-647 -328 -450 -281 -838 -636 -1144 -1045 -894 -1194 -1087 -2778 -504 -4143
318 -747 841 -1384 1503 -1831 188 -127 305 -195 503 -292 425 -209 852 -336
1346 -401 225 -30 749 -33 966 -5 311 40 564 96 840 187 883 289 1654 873
2172 1645 240 358 440 795 557 1220 114 411 164 860 145 1300 -57 1313 -740
2533 -1834 3274 -527 357 -1135 590 -1775 681 -254 36 -637 49 -870 29z"/>
<path d="M25205 22429 c-416 -33 -815 -122 -1200 -269 -933 -357 -1730 -1060
-2193 -1938 -252 -477 -402 -960 -469 -1512 -27 -223 -25 -726 5 -952 132
-1005 579 -1887 1295 -2557 661 -618 1472 -993 2397 -1108 206 -25 724 -25
930 0 300 37 581 100 840 186 218 73 316 113 535 221 453 222 802 474 1155
836 306 313 524 614 717 990 246 478 382 928 450 1484 25 205 25 687 0 890
-123 1009 -544 1869 -1251 2557 -707 688 -1617 1095 -2625 1173 -152 11 -436
11 -586 -1z"/>
<path d="M19835 14814 c-144 -22 -218 -38 -301 -65 -375 -120 -687 -387 -865
-740 -174 -346 -201 -760 -74 -1129 158 -460 542 -817 1012 -939 567 -148
1163 53 1524 514 202 257 309 571 309 905 0 694 -486 1286 -1175 1430 -97 20
-359 35 -430 24z"/>
</g>
</svg>
