<?xml version="1.0" encoding="UTF-8"?>
<svg xmlns="http://www.w3.org/2000/svg" xmlns:xlink="http://www.w3.org/1999/xlink" width="24px" height="24px" viewBox="0 0 24 24" version="1.1">
<g id="surface1">
<path style=" stroke:none;fill-rule:nonzero;fill:rgb(0%,0%,0%);fill-opacity:1;" d="M 11.109375 0.03125 C 9.371094 0.195312 8.046875 0.566406 6.605469 1.292969 C 5.457031 1.867188 4.523438 2.550781 3.535156 3.535156 C 2.484375 4.589844 1.820312 5.515625 1.191406 6.820312 C 0.449219 8.347656 0.078125 9.867188 0.015625 11.601562 C -0.0546875 13.597656 0.355469 15.5 1.246094 17.292969 C 1.871094 18.554688 2.515625 19.445312 3.535156 20.464844 C 4.570312 21.496094 5.464844 22.140625 6.726562 22.757812 C 7.609375 23.1875 8.175781 23.398438 9.070312 23.625 C 11.414062 24.214844 13.765625 24.101562 16.054688 23.292969 C 16.753906 23.042969 17.960938 22.4375 18.585938 22.023438 C 19.609375 21.34375 20.714844 20.324219 21.425781 19.40625 C 23.054688 17.316406 23.960938 14.789062 23.972656 12.328125 L 23.976562 11.601562 L 23.816406 11.304688 C 23.640625 10.984375 23.441406 10.789062 23.109375 10.632812 C 22.800781 10.480469 22.191406 10.484375 21.867188 10.640625 C 21.566406 10.785156 21.285156 11.070312 21.144531 11.367188 C 21.050781 11.558594 21.027344 11.71875 20.996094 12.25 C 20.949219 13.023438 20.890625 13.476562 20.765625 14.015625 C 20.371094 15.679688 19.554688 17.152344 18.355469 18.355469 C 16.1875 20.527344 13.070312 21.441406 10.078125 20.78125 C 8.375 20.40625 6.875 19.585938 5.644531 18.355469 C 3.734375 16.453125 2.769531 13.761719 3.046875 11.109375 C 3.375 7.941406 5.296875 5.230469 8.179688 3.863281 C 11.257812 2.398438 14.929688 2.835938 17.609375 4.984375 L 17.914062 5.226562 L 16.726562 5.25 C 15.542969 5.273438 15.539062 5.273438 15.273438 5.40625 C 14.382812 5.839844 14.140625 7.003906 14.792969 7.730469 C 14.914062 7.867188 15.117188 8.019531 15.273438 8.09375 L 15.539062 8.226562 L 18.492188 8.226562 C 21.296875 8.226562 21.460938 8.222656 21.679688 8.136719 C 21.984375 8.015625 22.367188 7.65625 22.503906 7.34375 L 22.617188 7.101562 L 22.617188 1.195312 L 22.460938 0.882812 C 22.179688 0.304688 21.695312 0.0195312 21.046875 0.0546875 C 20.480469 0.0898438 20.042969 0.378906 19.777344 0.890625 C 19.671875 1.082031 19.664062 1.171875 19.648438 1.90625 C 19.640625 2.351562 19.621094 2.71875 19.613281 2.71875 C 19.597656 2.71875 19.429688 2.597656 19.226562 2.441406 C 17.140625 0.851562 14.5 -0.0234375 11.882812 0.0078125 C 11.550781 0.0078125 11.199219 0.0234375 11.109375 0.03125 Z M 11.109375 0.03125 "/>
</g>
</svg>
